<?xml version="1.0" encoding="UTF-8"?>
<svg version="1.1" xmlns="http://www.w3.org/2000/svg" width="512" height="512">
<path d="M0 0 C168.96 0 337.92 0 512 0 C512 168.96 512 337.92 512 512 C343.04 512 174.08 512 0 512 C0 343.04 0 174.08 0 0 Z " fill="#F5F4F8" transform="translate(0,0)"/>
<path d="M0 0 C46.2 0 92.4 0 140 0 C140 168.63 140 337.26 140 511 C122.84 511 105.68 511 88 511 C83.43617021 496.16755319 83.43617021 496.16755319 82 489.625 C80.66681534 483.6851862 79.16856038 477.80932835 77.5884552 471.93002319 C75.73955561 465.04914964 73.96162308 458.15050584 72.1875 451.25 C71.48467757 448.52075536 70.78138286 445.79163247 70.078125 443.0625 C69.90288803 442.38221741 69.72765106 441.70193481 69.54710388 441.0010376 C67.85042283 434.41566712 66.14514209 427.83253638 64.4375 421.25 C64.15285889 420.15268555 63.86821777 419.05537109 63.57495117 417.92480469 C63.00297856 415.7200394 62.43095732 413.51528674 61.85888672 411.31054688 C60.4051644 405.70722831 58.95264957 400.10359674 57.5 394.5 C56.91667231 392.24999854 56.33333898 389.99999854 55.75 387.75 C50.5 367.5 50.5 367.5 45.25 347.25 C44.8163916 345.57756226 44.8163916 345.57756226 44.37402344 343.87133789 C43.79387746 341.63356251 43.21379873 339.3957697 42.63378906 337.15795898 C41.12725567 331.34577348 39.61936438 325.53394494 38.109375 319.72265625 C37.79806641 318.52382813 37.48675781 317.325 37.16601562 316.08984375 C36.57661157 313.82019827 35.98680072 311.55065837 35.39648438 309.28125 C34.59360356 306.1885301 33.79610033 303.09447148 33 300 C32.56977539 298.34460205 32.56977539 298.34460205 32.13085938 296.65576172 C31.71803711 295.04531982 31.71803711 295.04531982 31.296875 293.40234375 C31.04776367 292.43675537 30.79865234 291.47116699 30.54199219 290.47631836 C30 288 30 288 30 285 C-18.18 285 -66.36 285 -116 285 C-114.02 291.93 -112.04 298.86 -110 306 C-108.28242609 312.72307502 -106.58611698 319.44770127 -104.9375 326.1875 C-102.38070922 336.61584989 -99.75802547 347.00777405 -96.84410095 357.34257507 C-94.7628451 364.76092537 -92.90228264 372.22898794 -91.06323242 379.71044922 C-87.47306993 394.40555842 -87.47306993 394.40555842 -83.5 409 C-80.69410504 418.74046393 -78.33505066 428.59744127 -75.89648438 438.43457031 C-73.12836864 449.70695961 -73.12836864 449.70695961 -70.0969696 460.91026306 C-68.19458247 467.5697121 -66.39448091 474.24972766 -64.69921875 480.96484375 C-64.49524979 481.77192276 -64.29128082 482.57900177 -64.08113098 483.41053772 C-63.65927759 485.08315031 -63.23819297 486.75595697 -62.81787109 488.42895508 C-62.39963393 490.09331869 -61.98021167 491.75738497 -61.55957031 493.42114258 C-60.96688184 495.76810411 -60.3791535 498.11625046 -59.79296875 500.46484375 C-59.61199142 501.17962387 -59.4310141 501.89440399 -59.24455261 502.63084412 C-58.53284352 505.50432132 -58 508.02642235 -58 511 C-150.4 511 -242.8 511 -338 511 C-334.97258915 505.55066047 -332.05014198 500.37347675 -328.5625 495.265625 C-327.68163662 493.95942588 -326.80146913 492.6527573 -325.921875 491.34570312 C-325.45201172 490.64872314 -324.98214844 489.95174316 -324.49804688 489.23364258 C-321.74330498 485.12622185 -319.03003976 480.99146212 -316.3125 476.859375 C-315.11721274 475.04360318 -313.92189976 473.22784828 -312.7265625 471.41210938 C-312.11844727 470.48809326 -311.51033203 469.56407715 -310.88378906 468.61206055 C-302.28837065 455.55295089 -293.69160177 442.4953533 -285 429.5 C-277.19405224 417.82840954 -269.47048551 406.10324717 -261.75 394.375 C-253.20337126 381.39191986 -244.6378095 368.42261282 -236 355.5 C-226.76582122 341.68514659 -217.61717354 327.81485336 -208.48095703 313.93505859 C-200.63795466 302.02109674 -192.77003365 290.12508352 -184.84173584 278.26773071 C-177.0073107 266.54724869 -169.25157245 254.77539562 -161.5 243 C-152.98598124 230.06637396 -144.4531681 217.14663047 -135.84631348 204.27459717 C-127.27858886 191.45721993 -118.80348465 178.57911294 -110.32568359 165.70214844 C-102.99869692 154.57383031 -95.65833843 143.4559585 -88.24853516 132.38256836 C-81.32380354 122.01740199 -74.4799915 111.59885348 -67.625 101.1875 C-59.11752916 88.26644341 -50.59674889 75.35582833 -41.99169922 62.49951172 C-37.18615361 55.30850354 -32.4223159 48.09081821 -27.671875 40.86328125 C-27.02198608 39.87500336 -26.37209717 38.88672546 -25.70251465 37.86849976 C-22.4390339 32.90535221 -19.17828503 27.94044586 -15.921875 22.97265625 C-14.71364699 21.13404537 -13.50531803 19.29550081 -12.296875 17.45703125 C-11.75069519 16.62166336 -11.20451538 15.78629547 -10.64178467 14.9256134 C-10.1190094 14.13136459 -9.59623413 13.33711578 -9.05761719 12.51879883 C-8.61005066 11.83634598 -8.16248413 11.15389313 -7.70135498 10.45075989 C-5.23363427 6.89606907 -2.59637633 3.4618351 0 0 Z " fill="#1E0050" transform="translate(372,0)"/>
<path d="M0 0 C48.18 0 96.36 0 146 0 C148.31 9.24 150.62 18.48 153 28 C154.50328069 33.31385282 154.50328069 33.31385282 156.04296875 38.6171875 C158.4773 47.22180325 160.50886949 55.9407314 162.64550781 64.62304688 C164.93617296 73.91779439 167.29724799 83.1617786 169.97705078 92.35351562 C172.38913891 100.95183263 174.43693527 109.65044471 176.57006836 118.32128906 C178.76920244 127.24713618 181.00362257 136.15206145 183.5 145 C186.23602589 154.6973273 188.6556733 164.46663495 191.0625 174.25 C193.84664269 185.56557419 196.72921191 196.81373752 200 208 C200.76714305 210.72501008 201.51179883 213.45439805 202.25 216.1875 C202.58515625 217.41855469 202.9203125 218.64960938 203.265625 219.91796875 C204 223 204 223 204 226 C221.16 226 238.32 226 256 226 C256 226.33 256 226.66 256 227 C97.93 227 -60.14 227 -223 227 C-222.505 226.01 -222.505 226.01 -222 225 C-129.6 225.33 -37.2 225.66 58 226 C53.1632291 206.48153 53.1632291 206.48153 48.08203125 187.04296875 C46.57718297 181.45583487 45.13743976 175.85157436 43.6875 170.25 C43.38714844 169.08976318 43.08679688 167.92952637 42.77734375 166.73413086 C42.15921008 164.34557462 41.54121029 161.95698372 40.92333984 159.56835938 C39.45100906 153.87835759 37.97539463 148.18920795 36.5 142.5 C35.91664971 140.2500044 35.3333164 138.00000439 34.75 135.75 C34.46125 134.63625 34.1725 133.5225 33.875 132.375 C30.66666667 120 27.45833333 107.625 24.25 95.25 C23.96133057 94.13657227 23.67266113 93.02314453 23.37524414 91.87597656 C22.79107442 89.62272721 22.20692733 87.36947199 21.62280273 85.11621094 C20.1774504 79.54087803 18.73172321 73.9656429 17.28515625 68.390625 C17.0013208 67.29645264 16.71748535 66.20228027 16.42504883 65.07495117 C15.85084853 62.86152525 15.27646755 60.64814619 14.7019043 58.43481445 C13.27893646 52.94929132 11.86055028 47.46264624 10.45289612 41.97317505 C9.74577146 39.21559003 9.03738311 36.45833003 8.32907104 33.7010498 C7.83136012 31.76101514 7.33568383 29.82045884 6.84008789 27.87988281 C4.9409649 20.48737617 2.9176961 13.15440034 0.7409668 5.83911133 C0 3 0 3 0 0 Z " fill="#F4F3F6" transform="translate(256,285)"/>
<path d="M0 0 C69.3 0 138.6 0 210 0 C208.44409056 3.11181887 207.22284295 5.13086783 205.05859375 7.72265625 C204.47940186 8.42052246 203.90020996 9.11838867 203.3034668 9.83740234 C202.68769775 10.57168457 202.07192871 11.3059668 201.4375 12.0625 C200.16132962 13.59754926 198.88528788 15.13270546 197.609375 16.66796875 C196.98869141 17.41224121 196.36800781 18.15651367 195.72851562 18.92333984 C193.53265069 21.56147927 191.35790158 24.21587324 189.1875 26.875 C188.49011719 27.72835938 187.79273438 28.58171875 187.07421875 29.4609375 C186.38972656 30.29882812 185.70523438 31.13671875 185 32 C183.50014304 33.83345036 182.0001406 35.66678171 180.5 37.5 C179.38625 38.86125 179.38625 38.86125 178.25 40.25 C18.5 235.5 18.5 235.5 16.265625 238.2265625 C14.7079033 240.13342871 13.15614001 242.04517299 11.609375 243.9609375 C10.83078125 244.92257813 10.0521875 245.88421875 9.25 246.875 C8.20585937 248.17050781 8.20585937 248.17050781 7.140625 249.4921875 C4.89834767 252.11908904 2.44217314 254.55782686 0 257 C0 172.19 0 87.38 0 0 Z " fill="#260070" transform="translate(0,0)"/>
</svg>
